<svg xmlns="http://www.w3.org/2000/svg" width="256" height="256" viewBox="0 0 256 256">
  <defs>
    <style>
      .cls-1 {
        fill: #fff;
        fill-rule: evenodd;
      }
    </style>
  </defs>
  <path id="椭圆_1_拷贝_2" data-name="椭圆 1 拷贝 2" class="cls-1" d="M226.306,52.887l24.071-3.163L217.521,131.6l-40.588-.352,41.291,26.707,12.475,92.6L179.393,232.28l-7.2-22.841L154.443,228.59l-27.234-89.784,36.02-87.325,79.242-41.115,9.488,21.963ZM152.862,19.5l7.907,12.475-27.937,73.971ZM80.824,227.36l-4.568-26.355L41.993,212.6l-0.7-64.483,29.87-19.327-34.438,3.865L4.041,53.063,26.531,0,66.416,39.885,58.685,53.063,73.8,48.494l52.183,66.767L107.355,216.115Zm-41.115-8.785L36.9,254.419,18.449,256l5.1-24.071Z"/>
</svg>
